<?xml version="1.0" encoding="UTF-8" standalone="no"?>
<svg xmlns="http://www.w3.org/2000/svg" viewBox="0 0 210.3 210.3"><defs><clipPath id="a"><path d="M1776.56 314.36L1578 115.76l-198.6 198.6L1578 512.92l198.56-198.57"/></clipPath></defs><path d="M150.45 165c-11.77-11.13-27.6-18.02-45.07-18.02-17.6 0-33.56 6.96-45.34 18.2l45.1 45.12 45.3-45.3" fill="#4ebe4b"/><path d="M105.5 50.1c-14.2 0-27.3-4.68-37.92-12.5L105.16 0l37.92 37.92c-10.56 7.64-23.53 12.17-37.58 12.17" fill="#fff200"/><path d="M100.9 65.68c.67 4.1-2.1 7.9-6.16 8.55-4.07.65-7.9-2.12-8.53-6.16-.66-4.08 2.1-7.9 6.18-8.55 4.06-.66 7.9 2.1 8.53 6.16M100.9 97.1c.7 4.06-2.1 7.88-6.16 8.52-4.07.67-7.88-2.1-8.53-6.16-.65-4.08 2.12-7.9 6.17-8.55 4.07-.65 7.9 2.12 8.54 6.2M125.16 123.66c.64 4.06-2.1 7.9-6.2 8.55-4.07.64-7.88-2.1-8.53-6.17-.66-4.08 2.1-7.9 6.17-8.55 4.07-.66 7.88 2.12 8.56 6.18M132.6 82.18c.65 4.05-2.1 7.88-6.2 8.53-4.05.68-7.86-2.1-8.53-6.17-.66-4.06 2.13-7.9 6.18-8.54 4.07-.66 7.9 2.1 8.55 6.18M172.95 142.66l-13.62-13.62 14.1-14.1H145.2l-9.76-9.78 9.5-9.5h28.75l-14.4-14.4 13.66-13.62L210.3 105l-37.35 37.66" fill="#45beed"/><g clip-path="url(#a)" transform="matrix(.52953 0 0 -.52953 -730.44 271.592)"><path d="M1413.8 344.72l-8.6-8.58c6.06-6.06 9.03-13.9 9.05-21.83-.02-7.93-3-15.75-9.02-21.78-6.06-6.05-13.9-9.02-21.82-9.04-7.94.02-15.77 3-21.83 9.05-6.04 6.04-9.02 13.87-9.03 21.8 0 7.94 3 15.76 9.03 21.8l.3.3-.3-.3c6.06 6.05 13.9 9.03 21.83 9.04 7.94 0 15.76-2.98 21.8-9.03l8.6 8.58 8.57 8.57c-10.72 10.74-24.9 16.16-38.97 16.14-14.07.02-28.25-5.4-39-16.14l.33.32-.32-.32c-10.73-10.73-16.14-24.9-16.13-38.97 0-14.06 5.4-28.24 16.14-38.97 10.75-10.74 24.94-16.17 39-16.15 14.08 0 28.25 5.42 39 16.15 10.72 10.72 16.13 24.9 16.12 38.96 0 14.07-5.4 28.26-16.15 39l.32-.32-.33.3-8.58-8.56" fill="#4abeea"/><path d="M1444.18 375.13l-8.58-8.58c14.45-14.46 21.62-33.28 21.63-52.22 0-18.93-7.2-37.76-21.63-52.2-14.44-14.44-33.28-21.62-52.22-21.64-18.93 0-37.75 7.17-52.2 21.62-14.45 14.45-21.6 33.26-21.63 52.18.02 18.94 7.2 37.77 21.65 52.22 14.46 14.45 33.28 21.63 52.22 21.65 18.92-.02 37.72-7.18 52.18-21.62l8.58 8.58 8.58 8.58c-19.13 19.14-44.3 28.75-69.34 28.74-25.08 0-50.26-9.62-69.38-28.76-19.14-19.12-28.77-44.3-28.76-69.38 0-25.05 9.6-50.22 28.74-69.35 19.13-19.13 44.3-28.74 69.36-28.73 25.08 0 50.26 9.6 69.38 28.73 19.13 19.13 28.76 44.3 28.74 69.38.02 25.07-9.6 50.25-28.74 69.38l-8.58-8.57" fill="#4abeea"/><path d="M1474.57 405.52l-8.58-8.58c22.84-22.85 34.2-52.66 34.22-82.6 0-29.93-11.4-59.77-34.23-82.6-22.85-22.84-52.68-34.22-82.62-34.23-29.92.02-59.74 11.38-82.6 34.23-22.83 22.84-34.2 52.64-34.2 82.56 0 29.94 11.4 59.77 34.23 82.63 22.85 22.83 52.68 34.2 82.62 34.22 29.92 0 59.73-11.37 82.57-34.2l8.57 8.57 8.58 8.58c-27.5 27.54-63.68 41.34-99.73 41.33-36.07 0-72.25-13.82-99.77-41.34-27.54-27.54-41.36-63.73-41.35-99.8 0-36.06 13.8-72.23 41.33-99.74 27.52-27.53 63.7-41.34 99.75-41.33 36.07 0 72.25 13.8 99.77 41.33 27.53 27.53 41.35 63.7 41.34 99.8 0 36.05-13.8 72.22-41.35 99.74l.45-.44-.45.44-8.58-8.58" fill="#4abeea"/><path d="M1395.06 317.23c1.37-8.5-4.38-16.4-12.83-17.75-8.44-1.35-16.37 4.42-17.72 12.8-1.36 8.47 4.4 16.4 12.84 17.74 8.44 1.37 16.37-4.38 17.72-12.8" fill="#45beed"/></g></svg>
