<svg version="1" xmlns="http://www.w3.org/2000/svg" width="1365.333" height="1365.333" viewBox="0 0 1024.000000 1024.000000"><path d="M421 91.2c-50.1 50.1-90.9 91.6-90.7 92.2.7 1.8 20 14.5 32.2 21.1 8.1 4.5 26.3 13.5 27.1 13.5.3 0 2 .7 3.7 1.5 14.2 6.6 47 16.5 62.7 19 1.9.3 4.6.7 6 1 3.2.6 7.4 1.2 13 2 2.5.3 6.3.8 8.5 1.1 6.5.9 46.4 1.2 54 .3 3.9-.4 10-1 13.6-1.3 3.6-.4 7.9-.9 9.5-1.2 18.8-3.2 35.4-7.2 49.8-11.9 11-3.5 30.5-11.2 32.1-12.5.6-.5 1.2-.8 1.5-.8 1.1.1 21.3-10.4 29.6-15.5 12.9-7.7 22.3-14.1 22.4-15 0-.4-41.4-42.1-92-92.7L512.1 0 421 91.2zM240.2 271.7l-22 21.9 9 9.5c15.2 15.8 26.2 30.1 41.8 54.4 5.6 8.7 19.7 38.6 24.3 51.6 3.9 10.8 8.7 26.7 10.3 34.2 1.7 8 4.3 22 4.9 26.7.4 3 .9 6.6 1 8 2.3 16.8 2.2 51.2 0 68-.3 1.9-.7 5.7-1.1 8.5-.3 2.7-.9 6.8-1.4 9-.5 2.2-1.2 5.6-1.5 7.5-4.9 29-19.7 67.3-37.1 96.1-11 18.2-26.6 38.5-41.7 54.2l-8.5 8.9 22.1 22 22.1 22 9.5-9.8c38.1-39.4 66.3-85.9 83.7-138.1 3.5-10.8 9.8-33.8 10.9-40.3.3-1.9 1.2-7.1 2-11.5s1.7-10.3 2-13c.4-2.8.8-6.1 1.1-7.5 2.6-14.2 2.5-72.9-.1-85.5-.2-1.1-.7-3.9-.9-6.3-3.1-25.3-12-58.6-23.1-86.7-10.6-26.5-33.9-67.3-48.6-85-.9-1.1-5.2-6.3-9.5-11.5s-12.1-14-17.5-19.4l-9.6-9.9-22.1 22zM448 290.4c-17.6 3.8-29.5 19.4-28.4 37.3.8 14.1 8.4 24.9 21.9 31.3 4.1 1.9 6.7 2.4 14 2.4 8.1 0 9.6-.3 15.7-3.2 8-3.9 14.8-11.2 18-19.2 2.8-7.1 3-19.6.4-26-6.8-17.1-23.9-26.4-41.6-22.6z"/><path d="M161.9 350.1l-22.2 22.1 6 6.1c9.1 9.4 10 10.5 17.2 20.2 8 10.7 12.4 17.8 18.4 30.1 4.8 9.5 13.2 33.2 14.3 39.9.3 2.2.8 4.3 1 4.6.2.4.6 2.4.9 4.5.4 2.2.8 4.6 1 5.4 1.7 6.5 2.4 35.1 1.2 48-3.3 34.3-16.9 68.2-38.7 97-5.7 7.4-7.9 9.9-16.7 19.1l-4.5 4.6 21.7 21.7c11.9 11.9 22.1 21.6 22.7 21.6 1.5 0 13.6-12.9 22.7-24.1 18.3-22.5 32.8-48.7 42.2-75.9 3.1-8.8 8.3-27.9 9.3-34 .3-1.9.8-4.6 1.1-6 .3-1.4.8-4.5 1.1-7 .3-2.5.8-5.6 1.1-7 .3-1.4.7-13.3.8-26.5.3-26.2-.9-37.6-6.1-60.5-2.7-11.8-10.8-36.8-12.5-38.5-.5-.5-.9-1.5-.9-2.2 0-2.2-11.3-24.1-17.6-34.4-9.6-15.5-22-31.2-35.1-44.6l-6.3-6.4-22.1 22.2zM808.6 362.9l-32.9 32.9 34.7 34.6c19 19 34.6 34.7 34.6 35 0 .2-31.3.4-69.6.4h-69.6l-23.2 23.1-23.1 23.1 23.8 23.8 23.8 23.8h68c37.7-.1 67.9.3 67.9.8 0 .4-15.1 15.9-33.6 34.4l-33.5 33.5 32.8 32.9c18 18 33 32.8 33.3 32.8.3 0 3.7-3.1 7.5-6.9 5.7-5.6 169.1-170.4 173.2-174.6.9-1-18.4-20.8-89.2-91.6-49.7-49.7-90.7-90.5-91.2-90.6-.4-.2-15.6 14.5-33.7 32.6zM606.5 369.7c-9.6 1.1-20 7-26 14.9-5.8 7.6-8.3 20.1-5.9 29.5 4 15.9 16.8 26.7 32.8 27.7 17.6 1.1 31.9-9.1 37.5-26.6 1.8-5.8.8-18-2.2-24.4-4.5-9.9-15.4-18.7-25.3-20.3-6.7-1.1-7.8-1.2-10.9-.8z"/><path d="M83.1 428.8l-21.8 21.8 6.6 6.9c22.3 23.4 28.1 59 14.4 88.2-1.5 3.2-3.1 5.9-3.5 6.1-.4.2-.8.8-.8 1.3 0 1.5-7.3 11-11.9 15.4-2.3 2.1-4.1 4.2-4.1 4.6 0 .4 9.7 10.5 21.6 22.3 17.5 17.6 21.8 21.4 23.2 20.7 1-.5 4-3.3 6.7-6.3 49.6-53.3 52-132 5.9-188.8-5.1-6.3-12.7-14-13.9-14-.3 0-10.4 9.8-22.4 21.8zM446.5 443.5c-16.1 4.8-26.4 17.6-26.9 33.5-.7 21.8 16.5 38.7 38.2 37.5 18.6-1 33-15.8 33.7-34.5.6-20.6-14.5-36.9-35-37.5-3.3-.1-7.8.3-10 1zM14.2 497.5L0 511.9 14.2 526l14.1 14.1 3-3.3c9.7-11 12.2-29.9 5.5-43.2-2.4-4.8-6.6-10.6-7.6-10.5-.4 0-7.1 6.5-15 14.4zM573.8 571.5c-.2.2-2.7.5-5.7.8-11.1 1.2-22.2 9.4-27.3 20.3-9.7 20.7 2.1 45.1 24.2 50.4 16.9 4 34.4-4.7 41.8-20.8 2.1-4.7 2.6-7.2 2.6-14.2 0-7.5-.3-9.3-3.1-15-5.3-11.3-15-18.7-27-20.8-2.9-.5-5.4-.8-5.5-.7zM503.7 715.6c-.1.1-5.4.5-11.7.8-6.3.4-12.6.9-14 1.1-1.4.2-6.1.9-10.5 1.5-24.3 3.4-57.3 12.6-78.5 21.8-6.9 3-18.3 8.2-20 9.1-12.5 6.8-16.9 9.3-25 14.4-8.7 5.5-23.7 15.9-28.5 19.8-2.1 1.8-17.8 15.2-20.7 17.8-1 .9-1.8 1.9-1.8 2.3 0 .4 49.3 50.1 109.5 110.3L512 1024l110-110c60.5-60.5 110-110.4 110-110.9s-.4-1.1-.8-1.3c-.5-.2-4.2-3.3-8.3-7-28.8-26.1-68.2-48.8-108.4-62.5-19.1-6.5-49.5-13.2-66.5-14.7-16.8-1.5-43.5-2.7-44.3-2z"/></svg>